<svg xmlns="http://www.w3.org/2000/svg" viewBox="0 0 200 200" fill="none">
  <defs>
    <linearGradient id="goldGrad" x1="0%" y1="0%" x2="100%" y2="100%">
      <stop offset="0%" stop-color="#D4A84B"/>
      <stop offset="55%" stop-color="#C8963E"/>
      <stop offset="100%" stop-color="#A67830"/>
    </linearGradient>
  </defs>

  <!-- A: two diagonal legs -->
  <polygon points="26,166 58,34 74,34 42,166" fill="url(#goldGrad)"/>
  <polygon points="74,34 90,34 122,166 106,166" fill="url(#goldGrad)"/>
  <!-- A: crossbar -->
  <polygon points="46,118 54,90 96,90 104,118" fill="url(#goldGrad)"/>

  <!-- S: bold angular form, white, overlapping right half of A -->
  <path d="M86,34 L164,34 L164,64 L112,64 L112,90 L164,90 L164,166 L86,166 L86,136 L138,136 L138,112 L86,112 Z" fill="white"/>
  <!-- S top inner recession -->
  <path d="M94,42 L156,42 L156,56 L112,56 L112,64 L94,64 Z" fill="url(#goldGrad)"/>
  <!-- S bottom inner recession -->
  <path d="M94,136 L112,136 L112,144 L156,144 L156,158 L94,158 Z" fill="url(#goldGrad)"/>
</svg>
