<?xml version="1.0" encoding="UTF-8"?>
<!-- Generator: visioncortex VTracer 0.6.5 -->
<svg version="1.1" xmlns="http://www.w3.org/2000/svg" width="500" height="500">
<path d="M0 0 C3.95872091 1.6221386 5.10780619 4.72787946 6.890625 8.39453125 C7.27484619 9.15072754 7.65906738 9.90692383 8.05493164 10.68603516 C11.31531981 17.19087802 14.26387488 23.8348899 17.19433594 30.49316406 C20.15187494 37.15721262 23.4582331 43.57924189 26.90551758 50.00073242 C30.27110054 56.29773487 33.36211206 62.69627107 36.38452148 69.16381836 C38.74891937 74.2184314 41.18565301 79.22697581 43.703125 84.20703125 C46.79002164 90.31908659 49.7318022 96.48851959 52.62548828 102.6940918 C56.15222959 110.22960307 59.8864217 117.65788358 63.640625 125.08203125 C63.970625 125.74203125 64.300625 126.40203125 64.640625 127.08203125 C67.21025669 127.60441231 69.73622956 128.0225062 72.328125 128.39453125 C80.52869806 129.72451635 87.9427291 131.90538862 95.640625 135.08203125 C96.34767578 135.32985352 97.05472656 135.57767578 97.78320312 135.83300781 C107.97662068 139.40646045 107.97662068 139.40646045 111.640625 143.08203125 C113.29730426 147.85747495 113.22303852 151.94315302 112.80029297 156.93017578 C112.5865076 159.81137492 112.63284771 162.66749851 112.67578125 165.55444336 C112.71412318 168.39756617 112.67738787 171.23903592 112.640625 174.08203125 C110.24609375 174.21484375 110.24609375 174.21484375 107.640625 174.08203125 C105.69275536 171.62915837 104.73236664 169.36380915 103.765625 166.39453125 C100.06234331 155.49042406 93.93937277 145.81805799 83.6796875 140.07421875 C72.68373935 134.72369992 59.37886421 133.23172229 47.640625 137.08203125 C40.20620949 139.91741965 33.07718011 144.72934629 29.359375 151.97265625 C26.85032496 159.33617266 26.8873216 167.80235472 29.640625 175.08203125 C30.84727241 177.21545727 32.18896538 179.09809643 33.640625 181.08203125 C33.640625 181.74203125 33.640625 182.40203125 33.640625 183.08203125 C34.300625 183.08203125 34.960625 183.08203125 35.640625 183.08203125 C35.640625 183.74203125 35.640625 184.40203125 35.640625 185.08203125 C36.630625 185.41203125 37.620625 185.74203125 38.640625 186.08203125 C38.640625 186.74203125 38.640625 187.40203125 38.640625 188.08203125 C39.2274707 188.36868652 39.81431641 188.6553418 40.41894531 188.95068359 C42.39922974 189.95910536 44.28848665 191.03162256 46.1875 192.18359375 C53.30520889 196.45933973 60.41788412 200.57973526 67.890625 204.20703125 C74.13709903 207.24171202 80.01369887 210.62839723 85.87890625 214.34375 C88.0229785 215.69327214 90.16198287 216.94606237 92.390625 218.14453125 C105.4269653 225.91619566 117.1158016 236.83405956 121.09765625 251.8203125 C121.27683594 252.56667969 121.45601562 253.31304687 121.640625 254.08203125 C121.82496094 254.69433594 122.00929688 255.30664062 122.19921875 255.9375 C124.34973285 266.38557294 122.86021124 278.34595168 118.28515625 287.91796875 C117.74246094 288.63210938 117.19976562 289.34625 116.640625 290.08203125 C115.320625 290.08203125 114.000625 290.08203125 112.640625 290.08203125 C111.980625 290.74203125 111.320625 291.40203125 110.640625 292.08203125 C109.980625 292.41203125 109.320625 292.74203125 108.640625 293.08203125 C108.970625 294.07203125 109.300625 295.06203125 109.640625 296.08203125 C109.16625 296.22640625 109.16625 296.22640625 106.765625 296.95703125 C103.640625 298.08203125 103.640625 298.08203125 101.640625 300.08203125 C101.640625 301.73203125 101.640625 303.38203125 101.640625 305.08203125 C98.340625 305.08203125 95.040625 305.08203125 91.640625 305.08203125 C92.81012079 301.7534663 93.72061825 299.16775035 96.640625 297.08203125 C99.828125 296.39453125 99.828125 296.39453125 102.640625 296.08203125 C102.640625 295.09203125 102.640625 294.10203125 102.640625 293.08203125 C103.630625 293.08203125 104.620625 293.08203125 105.640625 293.08203125 C104.980625 290.44203125 104.320625 287.80203125 103.640625 285.08203125 C103.310625 285.74203125 102.980625 286.40203125 102.640625 287.08203125 C101.980625 286.75203125 101.320625 286.42203125 100.640625 286.08203125 C100.26405652 283.23684715 99.98837391 280.43960584 99.765625 277.58203125 C98.81381947 267.66285789 96.81625307 260.82532499 89.8125 253.4921875 C88.640625 252.08203125 88.640625 252.08203125 88.640625 250.08203125 C88.10695313 249.83453125 87.57328125 249.58703125 87.0234375 249.33203125 C84.04803116 247.77116235 81.3177156 245.93684299 78.515625 244.08203125 C72.88993199 240.41102819 67.1415651 237.02404821 61.265625 233.76953125 C60.52940918 233.36154297 59.79319336 232.95355469 59.03466797 232.53320312 C54.9163327 230.27317503 50.75620874 228.12605981 46.54736328 226.0402832 C37.14113674 221.31308228 28.53782001 216.07345479 20.640625 209.08203125 C20.31191406 208.79457031 20.31191406 208.79457031 18.6484375 207.33984375 C7.66079469 197.10671719 5.85708523 184.67955397 4.640625 170.08203125 C-19.779375 170.08203125 -44.199375 170.08203125 -69.359375 170.08203125 C-69.359375 169.75203125 -69.359375 169.42203125 -69.359375 169.08203125 C-66.719375 168.75203125 -64.079375 168.42203125 -61.359375 168.08203125 C-61.99875 167.79328125 -62.638125 167.50453125 -63.296875 167.20703125 C-65.359375 166.08203125 -65.359375 166.08203125 -66.359375 164.08203125 C-66.08019478 164.07687752 -66.08019478 164.07687752 -64.66737366 164.05079651 C-12.95888483 163.09160055 -12.95888483 163.09160055 7.640625 162.08203125 C7.85912109 161.55158203 7.85912109 161.55158203 8.96484375 158.8671875 C12.1129774 151.53629631 16.67988447 145.36541491 22.640625 140.08203125 C23.300625 140.08203125 23.960625 140.08203125 24.640625 140.08203125 C24.640625 139.42203125 24.640625 138.76203125 24.640625 138.08203125 C26.09600068 137.24354321 27.55502873 136.41139191 29.015625 135.58203125 C29.82773437 135.11796875 30.63984375 134.65390625 31.4765625 134.17578125 C33.640625 133.08203125 33.640625 133.08203125 35.640625 133.08203125 C35.39530029 132.59138184 35.14997559 132.10073242 34.8972168 131.59521484 C22.80859375 107.41796875 22.80859375 107.41796875 21.4077301 104.6162262 C20.47963562 102.7600474 19.55152486 100.90387675 18.62339783 99.04771423 C16.51881855 94.8387198 14.41442075 90.62963512 12.31079102 86.42016602 C6.65064362 75.09482217 6.65064362 75.09482217 4.35546875 70.546875 C2.76743091 67.39523067 1.19228063 64.23789493 -0.37158203 61.07421875 C-1.04019539 59.72575483 -1.71317931 58.37945065 -2.39013672 57.03515625 C-3.39376702 55.03647776 -4.3784604 53.02943709 -5.359375 51.01953125 C-5.936875 49.85292969 -6.514375 48.68632812 -7.109375 47.484375 C-8.46635155 43.79085447 -8.59802604 40.98497008 -8.359375 37.08203125 C-9.349375 37.24703125 -9.349375 37.24703125 -14.359375 38.08203125 C-14.359375 38.74203125 -14.359375 39.40203125 -14.359375 40.08203125 C-14.689375 39.91703125 -14.689375 39.91703125 -16.359375 39.08203125 C-16.070625 38.44265625 -15.781875 37.80328125 -15.484375 37.14453125 C-14.55527112 34.61530403 -14.02932465 32.45563841 -13.546875 29.83203125 C-12.62411686 25.4027922 -10.83226558 21.97073486 -8.53515625 18.1015625 C-7.21970235 15.84212839 -6.2331994 13.54462729 -5.359375 11.08203125 C-4.699375 11.08203125 -4.039375 11.08203125 -3.359375 11.08203125 C-3.524375 10.75203125 -3.524375 10.75203125 -4.359375 9.08203125 C-4.546875 5.58203125 -4.546875 5.58203125 -4.359375 2.08203125 C-2.359375 0.08203125 -2.359375 0.08203125 0 0 Z " fill="#AB863E" transform="translate(246.359375,90.91796875)"/>
<path d="M0 0 C0.99 0 1.98 0 3 0 C3 2.64 3 5.28 3 8 C2.835 7.67 2.835 7.67 2 6 C-0.75666226 7.37833113 -0.87509724 8.83309257 -1.9375 11.6875 C-3.05490131 14.6160053 -4.17621123 17.33886774 -5.625 20.125 C-7.54235058 24.13400577 -9 28.51043552 -9 33 C-7.02 32.67 -5.04 32.34 -3 32 C-3 33.65 -3 35.3 -3 37 C-3.66 36.34 -4.32 35.68 -5 35 C-9.16990944 43.83499562 -13.24148177 52.70522594 -17.15820312 61.65576172 C-18.66525422 65.08080723 -20.21418253 68.45719062 -21.92578125 71.78515625 C-24.06958571 76.01518901 -25.85061497 80.37235374 -27.65234375 84.75683594 C-30.00619807 90.42143753 -32.50761889 96.02030542 -35 101.625 C-35.25394531 102.19992188 -35.25394531 102.19992188 -36.5390625 105.109375 C-39.19685905 111.09282468 -41.93404442 117.0048284 -44.93408203 122.82495117 C-46.03694845 125.07539482 -46.97243555 127.3502411 -47.875 129.6875 C-49.82801454 134.73345186 -52.10649187 139.59811999 -54.45068359 144.47143555 C-56.57889991 148.93972953 -58.24578738 153.32209967 -60 158 C-44.16 158 -28.32 158 -12 158 C-12 158.33 -12 158.66 -12 159 C-19.755 159.165 -19.755 159.165 -59 160 C-54.31494027 163.12337315 -51.55664989 164.24930915 -45.85449219 164.31884766 C-44.61350769 164.33871735 -43.37252319 164.35858704 -42.09393311 164.37905884 C-40.74491555 164.39093424 -39.39589611 164.40259715 -38.046875 164.4140625 C-36.66252494 164.43277907 -35.27818622 164.45235285 -33.89385986 164.4727478 C-30.25747373 164.52402362 -26.62105063 164.56367346 -22.98449707 164.60089111 C-19.27082203 164.64095945 -15.55730017 164.69203884 -11.84375 164.7421875 C-4.56260518 164.83889283 2.71861389 164.92331463 10 165 C10 165.33 10 165.66 10 166 C-14.75 166 -39.5 166 -65 166 C-67 171 -67 171 -67.77441406 172.93774414 C-70.72465329 180.29099191 -73.6841971 187.57343343 -77.3125 194.625 C-80.80903722 201.46888886 -82.64073531 207.31117624 -82 215 C-80.6875 216.875 -80.6875 216.875 -79 218 C-78.505 218.33 -78.505 218.33 -76 220 C-76 221.32 -76 222.64 -76 224 C-86.23 224 -96.46 224 -107 224 C-107.33 222.68 -107.66 221.36 -108 220 C-107.41992188 219.67128906 -106.83984375 219.34257812 -106.2421875 219.00390625 C-96.07881273 212.81531666 -92.33742089 204.04542603 -87.90625 193.453125 C-85.93990387 188.78809695 -83.80339095 184.20563211 -81.67285156 179.61376953 C-78.62433896 173.02823486 -75.62746849 166.41912308 -72.625 159.8125 C-72.29573517 159.08832886 -71.96647034 158.36415771 -71.62722778 157.61804199 C-67.54520884 148.63836815 -63.4845896 139.65038831 -59.5 130.62695312 C-57.7500536 126.66837394 -55.95693521 122.73374976 -54.125 118.8125 C-51.32697958 112.7971373 -48.69428759 106.71468586 -46.0625 100.625 C-42.64122272 92.71041966 -39.12542016 84.85790763 -35.44140625 77.0625 C-34.28042356 74.59580507 -33.15508385 72.12233451 -32.0625 69.625 C-30.62413513 66.3543612 -29.11653652 63.12109728 -27.58349609 59.89379883 C-23.26117196 50.79005499 -19.0841978 41.62220999 -14.9375 32.4375 C-14.63206268 31.76110474 -14.32662537 31.08470947 -14.01193237 30.38781738 C-9.98247648 21.45834496 -5.99702683 12.51195678 -2.13671875 3.5078125 C-1 1 -1 1 0 0 Z " fill="#AA8A4F" transform="translate(241,96)"/>
<path d="M0 0 C1.8828125 0.0625 1.8828125 0.0625 4 1 C5.4921875 3.625 5.4921875 3.625 6.875 7 C13.36834927 21.8744893 22.74556535 31.92643606 37.625 38.8125 C49.52933781 43.0010633 62.10791163 43.79665665 74 39 C82.62849353 34.62441323 88.38628725 28.14477905 91.4765625 18.96484375 C92.27026995 15.9854792 92.68063813 13.06587393 93 10 C93.33 10 93.66 10 94 10 C94.06058594 10.63808594 94.12117188 11.27617187 94.18359375 11.93359375 C94.26738281 12.75988281 94.35117187 13.58617187 94.4375 14.4375 C94.51871094 15.26121094 94.59992188 16.08492188 94.68359375 16.93359375 C95 19 95 19 96 20 C96.33 18.68 96.66 17.36 97 16 C99.09350689 19.4019487 99.17942163 22.05272412 99 26 C98.01 26 97.02 26 96 26 C96 26.99 96 27.98 96 29 C94.9275 29.185625 93.855 29.37125 92.75 29.5625 C90.30960856 30.23076135 89.2431191 30.6966266 87.64453125 32.69140625 C86.67912119 34.41659751 85.83056012 36.20599015 85 38 C87.97 38 90.94 38 94 38 C93 41 93 41 90.19140625 42.53515625 C88.99386719 43.03917969 87.79632813 43.54320312 86.5625 44.0625 C85.38816406 44.56910156 84.21382813 45.07570313 83.00390625 45.59765625 C58.81110342 54.68220063 33.65381008 47.79193096 10.93359375 38.31640625 C9.28543043 37.55205436 7.64061271 36.78042685 6 36 C5.2776416 35.71527832 4.5552832 35.43055664 3.81103516 35.13720703 C1.49477997 33.97527462 0.41000932 33.19288017 -1 31 C-1.88512265 25.89208027 -1.70258515 20.90042952 -1.5 15.75 C-1.47344283 14.33599265 -1.44997322 12.92192373 -1.4296875 11.5078125 C-1.22913695 1.22913695 -1.22913695 1.22913695 0 0 Z " fill="#A8884B" transform="translate(253,358)"/>
<path d="M0 0 C0.99 0.33 1.98 0.66 3 1 C1.63312778 4.98671063 -0.15195093 7.88494633 -3 11 C-3.66 11 -4.32 11 -5 11 C-5.33 11.99 -5.66 12.98 -6 14 C-8.0625 15.6875 -8.0625 15.6875 -10 17 C-10.66 16.67 -11.32 16.34 -12 16 C-12.25 13.1875 -12.25 13.1875 -12 10 C-9.61317755 7.52793389 -7.3520059 6.59857248 -4 6 C-4.33 5.01 -4.66 4.02 -5 3 C-2.6875 1.4375 -2.6875 1.4375 0 0 Z " fill="#A8884B" transform="translate(359,380)"/>
</svg>
